<?xml version="1.0" encoding="utf-8"?>
<!-- Generator: Adobe Illustrator 19.2.1, SVG Export Plug-In . SVG Version: 6.00 Build 0)  -->
<svg version="1.1" id="Layer_1" xmlns="http://www.w3.org/2000/svg" xmlns:xlink="http://www.w3.org/1999/xlink" x="0px" y="0px"
	 viewBox="0 0 300 90" style="enable-background:new 0 0 300 90;" xml:space="preserve">
<style type="text/css">
	.st0{fill:#FFFFFF;}
</style>
<g>
	<g>
		<path class="st0" d="M91.1,0.5V12h9.5V0.5h6.6v29.4h-6.6V17.6h-9.5v12.3h-6.6V0.5H91.1z"/>
		<path class="st0" d="M120.3,0.5v17.8c0,1.4,0.1,2.5,0.3,3.3c0.2,0.9,0.5,1.5,0.8,2c0.4,0.5,0.9,0.8,1.5,1c0.6,0.2,1.4,0.3,2.2,0.3
			c0.8,0,1.6-0.1,2.2-0.3c0.6-0.2,1.1-0.5,1.5-1c0.4-0.5,0.7-1.2,0.8-2c0.2-0.9,0.3-2,0.3-3.3V0.5h6.7V19c0,2.3-0.3,4.2-0.9,5.6
			c-0.6,1.5-1.4,2.6-2.5,3.5c-1,0.9-2.3,1.5-3.6,1.8c-1.4,0.3-2.8,0.5-4.4,0.5c-1.6,0-3.2-0.1-4.6-0.4c-1.4-0.3-2.6-0.8-3.7-1.7
			c-1-0.8-1.8-2-2.4-3.5c-0.6-1.5-0.9-3.4-0.9-5.8V0.5H120.3z"/>
		<path class="st0" d="M153.4,0.5c3.4,0,6,0.8,7.6,2.4c1.7,1.6,2.5,4,2.5,7.1c0,4-1.5,6.8-4.5,8.3l6.7,10.9v0.6h-7.2l-5.8-10.4h-3.2
			v10.4h-6.6V0.5H153.4z M154,13.9c0.6-0.1,1.1-0.3,1.5-0.6c0.4-0.3,0.7-0.7,0.9-1.2c0.2-0.5,0.3-1.2,0.3-2.1c0-0.8-0.1-1.5-0.3-2
			c-0.2-0.5-0.5-0.9-0.9-1.3c-0.4-0.3-0.9-0.5-1.5-0.6C153.4,6,152.7,6,152,6h-2.5v8.1h2.5C152.7,14.1,153.4,14,154,13.9z"/>
		<path class="st0" d="M172.3,24.3c1.2,0.4,2.6,0.6,4.1,0.6c1.2,0,2.1-0.2,2.8-0.6c0.7-0.4,1.1-1.1,1.2-2.1c0-0.9-0.2-1.6-0.7-2
			c-0.5-0.5-1.2-0.9-2.1-1.3l-3.1-1.2c-2-0.8-3.6-1.9-4.8-3.2c-1.2-1.4-1.8-3.2-1.8-5.5c0-1.5,0.3-2.7,0.8-3.8
			c0.5-1.1,1.2-2,2.1-2.8c0.9-0.7,1.9-1.3,3.1-1.7c1.2-0.4,2.5-0.6,3.8-0.6c1.7,0,3.4,0.2,4.9,0.5c1.6,0.3,2.8,0.8,3.8,1.3l-1.8,5.3
			c-0.4-0.2-0.8-0.4-1.3-0.6c-0.5-0.2-1.1-0.4-1.7-0.5c-0.6-0.2-1.2-0.3-1.8-0.4c-0.6-0.1-1.2-0.2-1.8-0.2c-1,0-1.8,0.2-2.4,0.6
			c-0.6,0.4-0.9,1.1-0.9,2.1c0,0.9,0.3,1.6,0.8,2c0.5,0.5,1.3,0.9,2.3,1.3l3.9,1.6c1.9,0.8,3.3,1.7,4.4,3c1.1,1.2,1.6,2.9,1.6,5
			c0,1.5-0.3,2.9-0.8,4.1s-1.3,2.1-2.2,2.9c-1,0.8-2.1,1.4-3.4,1.8c-1.3,0.4-2.8,0.6-4.5,0.6c-2,0-3.9-0.3-5.5-0.8
			c-1.6-0.5-2.9-1-3.7-1.6l1.8-5C170,23.5,171,23.9,172.3,24.3z"/>
		<path class="st0" d="M198.2,29.7c-1.5-0.5-2.8-1.3-3.9-2.5c-1.1-1.2-2-2.7-2.6-4.7c-0.6-2-0.9-4.4-0.9-7.4c0-2.9,0.3-5.3,1-7.2
			c0.7-1.9,1.6-3.5,2.7-4.7c1.1-1.2,2.5-2,3.9-2.5c1.5-0.5,3.1-0.8,4.7-0.8c1.8,0,3.4,0.2,4.9,0.7c1.5,0.5,2.8,1.3,3.9,2.5
			s2,2.7,2.6,4.7c0.6,2,0.9,4.4,0.9,7.4c0,2.9-0.3,5.3-1,7.2c-0.7,1.9-1.6,3.5-2.7,4.7c-1.1,1.2-2.5,2-3.9,2.5
			c-1.5,0.5-3.1,0.8-4.7,0.8C201.4,30.4,199.7,30.2,198.2,29.7z M205.6,24.6c0.7-0.3,1.3-0.7,1.7-1.4c0.5-0.7,0.8-1.7,1-3
			c0.2-1.3,0.3-2.9,0.3-5s-0.1-3.7-0.3-5c-0.2-1.3-0.6-2.3-1-3c-0.5-0.7-1-1.2-1.7-1.4c-0.7-0.3-1.5-0.4-2.4-0.4
			c-1,0-1.8,0.1-2.5,0.4c-0.7,0.3-1.2,0.7-1.7,1.4c-0.4,0.7-0.8,1.7-1,3s-0.3,2.9-0.3,5s0.1,3.7,0.3,5c0.2,1.3,0.6,2.3,1,3
			c0.5,0.7,1,1.2,1.7,1.4c0.7,0.3,1.5,0.4,2.4,0.4C204.1,25,204.9,24.8,205.6,24.6z"/>
	</g>
	<g>
		<path class="st0" d="M36.7,42.7v3.8h3.2v-3.8h2.2v9.8h-2.2v-4.1h-3.2v4.1h-2.2v-9.8H36.7z"/>
		<path class="st0" d="M46.3,52.4c-0.5-0.2-0.9-0.4-1.3-0.8c-0.4-0.4-0.7-0.9-0.9-1.6c-0.2-0.7-0.3-1.5-0.3-2.5c0-1,0.1-1.8,0.3-2.4
			c0.2-0.6,0.5-1.2,0.9-1.6c0.4-0.4,0.8-0.7,1.3-0.9c0.5-0.2,1-0.3,1.6-0.3c0.6,0,1.1,0.1,1.6,0.2s0.9,0.4,1.3,0.8
			c0.4,0.4,0.7,0.9,0.9,1.6c0.2,0.7,0.3,1.5,0.3,2.5c0,1-0.1,1.8-0.3,2.4c-0.2,0.6-0.5,1.2-0.9,1.6c-0.4,0.4-0.8,0.7-1.3,0.9
			s-1,0.3-1.6,0.3C47.4,52.6,46.8,52.6,46.3,52.4z M48.8,50.7c0.2-0.1,0.4-0.2,0.6-0.5c0.2-0.2,0.3-0.6,0.3-1s0.1-1,0.1-1.7
			c0-0.7,0-1.2-0.1-1.7c-0.1-0.4-0.2-0.8-0.3-1c-0.2-0.2-0.3-0.4-0.6-0.5c-0.2-0.1-0.5-0.1-0.8-0.1c-0.3,0-0.6,0-0.8,0.1
			c-0.2,0.1-0.4,0.2-0.6,0.5c-0.1,0.2-0.3,0.6-0.3,1c-0.1,0.4-0.1,1-0.1,1.7c0,0.7,0,1.2,0.1,1.7c0.1,0.4,0.2,0.8,0.3,1
			c0.2,0.2,0.3,0.4,0.6,0.5c0.2,0.1,0.5,0.1,0.8,0.1C48.3,50.8,48.6,50.8,48.8,50.7z"/>
		<path class="st0" d="M54.7,50.6c0.4,0.1,0.9,0.2,1.4,0.2c0.4,0,0.7-0.1,0.9-0.2c0.2-0.1,0.4-0.4,0.4-0.7c0-0.3-0.1-0.5-0.2-0.7
			c-0.2-0.2-0.4-0.3-0.7-0.4l-1-0.4c-0.7-0.3-1.2-0.6-1.6-1.1c-0.4-0.5-0.6-1.1-0.6-1.8c0-0.5,0.1-0.9,0.3-1.3
			c0.2-0.4,0.4-0.7,0.7-0.9c0.3-0.2,0.6-0.4,1-0.6c0.4-0.1,0.8-0.2,1.3-0.2c0.6,0,1.1,0.1,1.6,0.2c0.5,0.1,0.9,0.3,1.3,0.4l-0.6,1.8
			c-0.1-0.1-0.3-0.1-0.4-0.2c-0.2-0.1-0.4-0.1-0.6-0.2c-0.2-0.1-0.4-0.1-0.6-0.1c-0.2,0-0.4-0.1-0.6-0.1c-0.3,0-0.6,0.1-0.8,0.2
			c-0.2,0.1-0.3,0.4-0.3,0.7c0,0.3,0.1,0.5,0.3,0.7c0.2,0.2,0.4,0.3,0.8,0.4l1.3,0.5c0.6,0.3,1.1,0.6,1.5,1c0.4,0.4,0.5,1,0.5,1.7
			c0,0.5-0.1,1-0.3,1.4c-0.2,0.4-0.4,0.7-0.7,1c-0.3,0.3-0.7,0.5-1.1,0.6c-0.4,0.1-0.9,0.2-1.5,0.2c-0.7,0-1.3-0.1-1.8-0.3
			c-0.5-0.2-1-0.3-1.2-0.5l0.6-1.7C54,50.3,54.3,50.5,54.7,50.6z"/>
		<path class="st0" d="M64.9,42.7c1.1,0,2,0.3,2.5,0.8c0.5,0.5,0.8,1.3,0.8,2.4c0,1-0.3,1.8-0.8,2.4c-0.5,0.6-1.4,0.8-2.5,0.8h-1.4
			v3.4h-2.2v-9.8H64.9z M65.1,47.2c0.2,0,0.4-0.1,0.5-0.2c0.1-0.1,0.2-0.2,0.3-0.4c0.1-0.2,0.1-0.4,0.1-0.7c0-0.3,0-0.5-0.1-0.7
			c-0.1-0.2-0.2-0.3-0.3-0.4c-0.1-0.1-0.3-0.2-0.5-0.2c-0.2,0-0.4-0.1-0.7-0.1h-0.9v2.7h0.9C64.7,47.2,64.9,47.2,65.1,47.2z"/>
		<path class="st0" d="M72,42.7v9.8h-2.2v-9.8H72z"/>
		<path class="st0" d="M73.2,44.5v-1.9h7.3v1.9h-2.6v8h-2.2v-8H73.2z"/>
		<path class="st0" d="M83.7,42.6h2.7l3.1,9.6v0.2h-2.3l-0.6-2h-3.2l-0.6,2h-2.1v-0.2L83.7,42.6z M84.9,45l-1.1,3.6H86L84.9,45z"/>
		<path class="st0" d="M92.8,42.7v7.9h3.8v1.9h-6.1v-9.8H92.8z"/>
		<path class="st0" d="M107.5,42.7v1.8h-4.2v2.1h2.8v1.8h-2.8v2.2h4.4v1.8H101v-9.8H107.5z"/>
		<path class="st0" d="M110.1,50.6c0.4,0.1,0.9,0.2,1.4,0.2c0.4,0,0.7-0.1,0.9-0.2c0.2-0.1,0.4-0.4,0.4-0.7c0-0.3-0.1-0.5-0.2-0.7
			s-0.4-0.3-0.7-0.4l-1-0.4c-0.7-0.3-1.2-0.6-1.6-1.1c-0.4-0.5-0.6-1.1-0.6-1.8c0-0.5,0.1-0.9,0.3-1.3c0.2-0.4,0.4-0.7,0.7-0.9
			c0.3-0.2,0.6-0.4,1-0.6c0.4-0.1,0.8-0.2,1.3-0.2c0.6,0,1.1,0.1,1.6,0.2c0.5,0.1,0.9,0.3,1.3,0.4l-0.6,1.8
			c-0.1-0.1-0.3-0.1-0.4-0.2c-0.2-0.1-0.4-0.1-0.6-0.2c-0.2-0.1-0.4-0.1-0.6-0.1c-0.2,0-0.4-0.1-0.6-0.1c-0.3,0-0.6,0.1-0.8,0.2
			c-0.2,0.1-0.3,0.4-0.3,0.7c0,0.3,0.1,0.5,0.3,0.7c0.2,0.2,0.4,0.3,0.8,0.4l1.3,0.5c0.6,0.3,1.1,0.6,1.5,1c0.4,0.4,0.5,1,0.5,1.7
			c0,0.5-0.1,1-0.3,1.4c-0.2,0.4-0.4,0.7-0.7,1s-0.7,0.5-1.1,0.6c-0.4,0.1-0.9,0.2-1.5,0.2c-0.7,0-1.3-0.1-1.8-0.3
			c-0.5-0.2-1-0.3-1.2-0.5l0.6-1.7C109.4,50.3,109.7,50.5,110.1,50.6z"/>
		<path class="st0" d="M115.7,44.5v-1.9h7.3v1.9h-2.6v8h-2.2v-8H115.7z"/>
		<path class="st0" d="M126.2,42.6h2.7l3.1,9.6v0.2h-2.3l-0.6-2h-3.2l-0.6,2h-2.1v-0.2L126.2,42.6z M127.5,45l-1.1,3.6h2.2L127.5,45
			z"/>
		<path class="st0" d="M136.4,42.7c0.6,0,1.1,0.1,1.6,0.2c0.5,0.1,1,0.4,1.4,0.8c0.4,0.4,0.7,0.9,1,1.5c0.2,0.6,0.4,1.4,0.4,2.4
			c0,1-0.1,1.8-0.4,2.4c-0.2,0.6-0.6,1.1-1,1.5c-0.4,0.4-0.9,0.6-1.4,0.8c-0.5,0.1-1.1,0.2-1.6,0.2h-3.3v-9.8H136.4z M137,50.5
			c0.3-0.1,0.6-0.2,0.8-0.4c0.2-0.2,0.4-0.5,0.5-0.9c0.1-0.4,0.2-0.9,0.2-1.6c0-0.7-0.1-1.2-0.2-1.6c-0.1-0.4-0.3-0.7-0.5-0.9
			c-0.2-0.2-0.5-0.4-0.8-0.4c-0.3-0.1-0.6-0.1-1-0.1h-0.7v6.1h0.7C136.4,50.6,136.7,50.6,137,50.5z"/>
		<path class="st0" d="M144.6,42.7v6c0,0.5,0,0.8,0.1,1.1c0.1,0.3,0.2,0.5,0.3,0.7c0.1,0.2,0.3,0.3,0.5,0.3c0.2,0.1,0.5,0.1,0.7,0.1
			c0.3,0,0.5,0,0.7-0.1c0.2-0.1,0.4-0.2,0.5-0.3c0.1-0.2,0.2-0.4,0.3-0.7c0.1-0.3,0.1-0.7,0.1-1.1v-5.9h2.2v6.2
			c0,0.8-0.1,1.4-0.3,1.9c-0.2,0.5-0.5,0.9-0.8,1.2c-0.3,0.3-0.8,0.5-1.2,0.6c-0.5,0.1-0.9,0.2-1.5,0.2c-0.5,0-1.1,0-1.5-0.1
			c-0.5-0.1-0.9-0.3-1.2-0.6c-0.3-0.3-0.6-0.7-0.8-1.2c-0.2-0.5-0.3-1.1-0.3-1.9v-6.2H144.6z"/>
		<path class="st0" d="M154.2,42.6h2.7l3.1,9.6v0.2h-2.3l-0.6-2h-3.2l-0.6,2h-2.1v-0.2L154.2,42.6z M155.4,45l-1.1,3.6h2.2L155.4,45
			z"/>
		<path class="st0" d="M163.3,42.7v7.9h3.8v1.9h-6.1v-9.8H163.3z"/>
		<path class="st0" d="M174.7,42.7c0.6,0,1.1,0.1,1.6,0.2c0.5,0.1,1,0.4,1.4,0.8c0.4,0.4,0.7,0.9,1,1.5c0.2,0.6,0.4,1.4,0.4,2.4
			c0,1-0.1,1.8-0.4,2.4c-0.2,0.6-0.6,1.1-1,1.5c-0.4,0.4-0.9,0.6-1.4,0.8c-0.5,0.1-1.1,0.2-1.6,0.2h-3.3v-9.8H174.7z M175.4,50.5
			c0.3-0.1,0.6-0.2,0.8-0.4c0.2-0.2,0.4-0.5,0.5-0.9c0.1-0.4,0.2-0.9,0.2-1.6c0-0.7-0.1-1.2-0.2-1.6c-0.1-0.4-0.3-0.7-0.5-0.9
			c-0.2-0.2-0.5-0.4-0.8-0.4c-0.3-0.1-0.6-0.1-1-0.1h-0.7v6.1h0.7C174.7,50.6,175.1,50.6,175.4,50.5z"/>
		<path class="st0" d="M187.3,42.7v1.8h-4.2v2.1h2.8v1.8h-2.8v2.2h4.4v1.8h-6.7v-9.8H187.3z"/>
		<path class="st0" d="M194.2,42.7v6c0,0.5,0,0.8,0.1,1.1c0.1,0.3,0.2,0.5,0.3,0.7c0.1,0.2,0.3,0.3,0.5,0.3c0.2,0.1,0.5,0.1,0.7,0.1
			c0.3,0,0.5,0,0.7-0.1c0.2-0.1,0.4-0.2,0.5-0.3c0.1-0.2,0.2-0.4,0.3-0.7c0.1-0.3,0.1-0.7,0.1-1.1v-5.9h2.2v6.2
			c0,0.8-0.1,1.4-0.3,1.9c-0.2,0.5-0.5,0.9-0.8,1.2c-0.3,0.3-0.8,0.5-1.2,0.6c-0.5,0.1-0.9,0.2-1.5,0.2c-0.5,0-1.1,0-1.5-0.1
			c-0.5-0.1-0.9-0.3-1.2-0.6c-0.3-0.3-0.6-0.7-0.8-1.2c-0.2-0.5-0.3-1.1-0.3-1.9v-6.2H194.2z"/>
		<path class="st0" d="M205.2,42.7c1.1,0,2,0.3,2.5,0.8c0.6,0.5,0.8,1.3,0.8,2.4c0,1.3-0.5,2.3-1.5,2.8l2.2,3.6v0.2h-2.4L205,49
			h-1.1v3.5h-2.2v-9.8H205.2z M205.4,47.1c0.2,0,0.4-0.1,0.5-0.2c0.1-0.1,0.2-0.2,0.3-0.4c0.1-0.2,0.1-0.4,0.1-0.7
			c0-0.3,0-0.5-0.1-0.7c-0.1-0.2-0.2-0.3-0.3-0.4c-0.1-0.1-0.3-0.2-0.5-0.2c-0.2,0-0.4-0.1-0.7-0.1h-0.8v2.7h0.8
			C205,47.2,205.2,47.2,205.4,47.1z"/>
		<path class="st0" d="M212.5,52.4c-0.5-0.2-0.9-0.5-1.3-0.9c-0.3-0.4-0.6-0.9-0.8-1.6c-0.2-0.6-0.3-1.4-0.3-2.4
			c0-1,0.1-1.8,0.4-2.4c0.2-0.7,0.6-1.2,1-1.6c0.4-0.4,0.9-0.7,1.4-0.8c0.5-0.2,1.1-0.2,1.6-0.2c0.6,0,1.1,0.1,1.6,0.2
			c0.4,0.1,0.9,0.3,1.3,0.5l-0.6,1.7c-0.3-0.2-0.6-0.3-1-0.4c-0.3-0.1-0.7-0.1-1.2-0.1c-0.3,0-0.7,0-0.9,0.1
			c-0.3,0.1-0.5,0.2-0.7,0.5c-0.2,0.2-0.3,0.6-0.4,1c-0.1,0.4-0.1,1-0.1,1.6c0,0.7,0,1.2,0.1,1.6c0.1,0.4,0.2,0.7,0.4,1
			c0.2,0.2,0.4,0.4,0.6,0.5s0.5,0.1,0.8,0.1c0.3,0,0.5,0,0.8-0.1c0.2-0.1,0.4-0.1,0.6-0.2v-1.7h-1.3v-1.6h3.4v5.3h-1.7l-0.1-0.7
			c-0.2,0.2-0.5,0.4-0.8,0.5c-0.4,0.1-0.7,0.2-1.1,0.2C213.6,52.6,213,52.5,212.5,52.4z"/>
		<path class="st0" d="M226.3,42.7v1.8h-4.2v2.1h2.8v1.8h-2.8v2.2h4.4v1.8h-6.7v-9.8H226.3z M222.6,39.3h0.8l2,1.2v1.4h-0.2
			l-2.1-1.2l-2.1,1.2h-0.2v-1.4L222.6,39.3z"/>
		<path class="st0" d="M230,42.7l3.8,5.9v-5.9h2v9.8H234l-3.9-6v6h-2v-9.8H230z"/>
		<path class="st0" d="M238,45.1c0.2-0.7,0.6-1.2,1-1.6c0.4-0.4,0.9-0.7,1.4-0.8c0.5-0.2,1.1-0.2,1.6-0.2c0.5,0,1,0.1,1.4,0.2
			c0.4,0.1,0.8,0.3,1.1,0.5l-0.6,1.7c-0.3-0.1-0.6-0.3-0.9-0.3c-0.3-0.1-0.6-0.1-1-0.1c-0.4,0-0.7,0-0.9,0.1
			c-0.3,0.1-0.5,0.3-0.7,0.5c-0.2,0.2-0.3,0.6-0.4,1c-0.1,0.4-0.1,0.9-0.1,1.6c0,0.6,0,1.1,0.1,1.6c0.1,0.4,0.2,0.7,0.4,1
			c0.2,0.2,0.4,0.4,0.7,0.5c0.3,0.1,0.6,0.2,0.9,0.2c0.5,0,0.9-0.1,1.2-0.2c0.3-0.1,0.7-0.2,1-0.4l0.6,1.6c-0.4,0.3-0.8,0.5-1.3,0.6
			c-0.5,0.1-1,0.2-1.5,0.2c-0.6,0-1.2-0.1-1.7-0.2c-0.5-0.2-1-0.4-1.4-0.8c-0.4-0.4-0.7-0.9-0.9-1.6c-0.2-0.7-0.3-1.5-0.3-2.5
			C237.6,46.6,237.8,45.8,238,45.1z"/>
		<path class="st0" d="M248.4,42.7v9.8h-2.2v-9.8H248.4z"/>
		<path class="st0" d="M252.6,42.6h2.7l3.1,9.6v0.2h-2.3l-0.6-2h-3.2l-0.6,2h-2.1v-0.2L252.6,42.6z M253.9,45l-1.1,3.6h2.2L253.9,45
			z"/>
		<path class="st0" d="M260.5,50.6c0.4,0.1,0.9,0.2,1.4,0.2c0.4,0,0.7-0.1,0.9-0.2c0.2-0.1,0.4-0.4,0.4-0.7c0-0.3-0.1-0.5-0.2-0.7
			c-0.2-0.2-0.4-0.3-0.7-0.4l-1-0.4c-0.7-0.3-1.2-0.6-1.6-1.1c-0.4-0.5-0.6-1.1-0.6-1.8c0-0.5,0.1-0.9,0.3-1.3
			c0.2-0.4,0.4-0.7,0.7-0.9c0.3-0.2,0.6-0.4,1-0.6c0.4-0.1,0.8-0.2,1.3-0.2c0.6,0,1.1,0.1,1.6,0.2c0.5,0.1,0.9,0.3,1.3,0.4l-0.6,1.8
			c-0.1-0.1-0.3-0.1-0.4-0.2c-0.2-0.1-0.4-0.1-0.6-0.2c-0.2-0.1-0.4-0.1-0.6-0.1c-0.2,0-0.4-0.1-0.6-0.1c-0.3,0-0.6,0.1-0.8,0.2
			c-0.2,0.1-0.3,0.4-0.3,0.7c0,0.3,0.1,0.5,0.3,0.7c0.2,0.2,0.4,0.3,0.8,0.4l1.3,0.5c0.6,0.3,1.1,0.6,1.5,1c0.4,0.4,0.5,1,0.5,1.7
			c0,0.5-0.1,1-0.3,1.4c-0.2,0.4-0.4,0.7-0.7,1c-0.3,0.3-0.7,0.5-1.1,0.6c-0.4,0.1-0.9,0.2-1.5,0.2c-0.7,0-1.3-0.1-1.8-0.3
			c-0.5-0.2-1-0.3-1.2-0.5l0.6-1.7C259.7,50.3,260,50.5,260.5,50.6z"/>
		<path class="st0" d="M83.5,60.9c0.6,0,1.1,0.1,1.6,0.2c0.5,0.1,1,0.4,1.4,0.8c0.4,0.4,0.7,0.9,1,1.5c0.2,0.6,0.4,1.4,0.4,2.4
			c0,1-0.1,1.8-0.4,2.4c-0.2,0.6-0.6,1.1-1,1.5c-0.4,0.4-0.9,0.6-1.4,0.8c-0.5,0.1-1.1,0.2-1.6,0.2h-3.3v-9.8H83.5z M84.1,68.7
			c0.3-0.1,0.6-0.2,0.8-0.4c0.2-0.2,0.4-0.5,0.5-0.9c0.1-0.4,0.2-0.9,0.2-1.6c0-0.7-0.1-1.2-0.2-1.6c-0.1-0.4-0.3-0.7-0.5-0.9
			c-0.2-0.2-0.5-0.4-0.8-0.4c-0.3-0.1-0.6-0.1-1-0.1h-0.7v6.1h0.7C83.5,68.8,83.8,68.8,84.1,68.7z"/>
		<path class="st0" d="M91.6,60.9h2.7l3.1,9.6v0.2h-2.3l-0.6-2h-3.2l-0.6,2h-2.1v-0.2L91.6,60.9z M92.9,63.2l-1.1,3.6h2.2L92.9,63.2
			z"/>
		<path class="st0" d="M105.1,60.9c1.1,0,2,0.3,2.5,0.8c0.6,0.5,0.8,1.3,0.8,2.4c0,1.3-0.5,2.3-1.5,2.8l2.2,3.6v0.2h-2.4l-1.9-3.5
			h-1.1v3.5h-2.2v-9.8H105.1z M105.3,65.3c0.2,0,0.4-0.1,0.5-0.2c0.1-0.1,0.2-0.2,0.3-0.4c0.1-0.2,0.1-0.4,0.1-0.7
			c0-0.3,0-0.5-0.1-0.7c-0.1-0.2-0.2-0.3-0.3-0.4c-0.1-0.1-0.3-0.2-0.5-0.2c-0.2,0-0.4-0.1-0.7-0.1h-0.8v2.7h0.8
			C104.9,65.4,105.1,65.4,105.3,65.3z"/>
		<path class="st0" d="M116.9,60.9v1.8h-4.2v2.1h2.8v1.8h-2.8v2.2h4.4v1.8h-6.7v-9.8H116.9z"/>
		<path class="st0" d="M120.6,70.6c-0.5-0.2-0.9-0.5-1.3-0.9c-0.4-0.4-0.6-0.9-0.8-1.6c-0.2-0.6-0.3-1.4-0.3-2.4
			c0-1,0.1-1.8,0.4-2.4c0.2-0.7,0.6-1.2,1-1.6c0.4-0.4,0.9-0.7,1.4-0.8c0.5-0.2,1.1-0.2,1.6-0.2c0.6,0,1.1,0.1,1.6,0.2
			s0.9,0.3,1.3,0.5l-0.6,1.7c-0.3-0.2-0.6-0.3-1-0.4c-0.3-0.1-0.7-0.1-1.2-0.1c-0.3,0-0.7,0-0.9,0.1c-0.3,0.1-0.5,0.2-0.7,0.5
			c-0.2,0.2-0.3,0.6-0.4,1c-0.1,0.4-0.1,1-0.1,1.6c0,0.7,0,1.2,0.1,1.6c0.1,0.4,0.2,0.7,0.4,1c0.2,0.2,0.4,0.4,0.6,0.5
			c0.2,0.1,0.5,0.1,0.8,0.1c0.3,0,0.5,0,0.8-0.1c0.2-0.1,0.4-0.1,0.6-0.2v-1.7h-1.3v-1.6h3.4v5.3h-1.7l-0.1-0.7
			c-0.2,0.2-0.5,0.4-0.8,0.5c-0.4,0.1-0.7,0.2-1.1,0.2C121.6,70.8,121.1,70.8,120.6,70.6z"/>
		<path class="st0" d="M130.2,60.9v9.8h-2.2v-9.8H130.2z"/>
		<path class="st0" d="M134.4,60.9h2.7l3.1,9.6v0.2h-2.3l-0.6-2h-3.2l-0.6,2h-2.1v-0.2L134.4,60.9z M133.9,58.3
			c0.2-0.2,0.5-0.3,0.9-0.3c0.1,0,0.3,0,0.4,0.1c0.1,0,0.3,0.1,0.4,0.1c0.1,0,0.3,0.1,0.4,0.1c0.1,0,0.3,0.1,0.4,0.1
			c0.2,0,0.4,0,0.5-0.1c0.1-0.1,0.3-0.2,0.4-0.4l0.7,0.9c-0.2,0.3-0.4,0.6-0.7,0.8c-0.3,0.2-0.6,0.3-1,0.3c-0.2,0-0.4,0-0.5-0.1
			c-0.1,0-0.3-0.1-0.4-0.1c-0.1,0-0.2-0.1-0.4-0.1c-0.1,0-0.3-0.1-0.4-0.1c-0.3,0-0.5,0.2-0.8,0.5l-0.8-0.8
			C133.5,58.8,133.7,58.5,133.9,58.3z M135.7,63.2l-1.1,3.6h2.2L135.7,63.2z"/>
		<path class="st0" d="M143.4,70.6c-0.5-0.2-0.9-0.4-1.3-0.8c-0.4-0.4-0.7-0.9-0.9-1.6c-0.2-0.7-0.3-1.5-0.3-2.5
			c0-1,0.1-1.8,0.3-2.4c0.2-0.6,0.5-1.2,0.9-1.6c0.4-0.4,0.8-0.7,1.3-0.9c0.5-0.2,1-0.3,1.6-0.3c0.6,0,1.1,0.1,1.6,0.2
			c0.5,0.2,0.9,0.4,1.3,0.8c0.4,0.4,0.7,0.9,0.9,1.6c0.2,0.7,0.3,1.5,0.3,2.5c0,1-0.1,1.8-0.3,2.4c-0.2,0.6-0.5,1.2-0.9,1.6
			c-0.4,0.4-0.8,0.7-1.3,0.9c-0.5,0.2-1,0.3-1.6,0.3C144.4,70.8,143.9,70.8,143.4,70.6z M145.8,68.9c0.2-0.1,0.4-0.2,0.6-0.5
			c0.2-0.2,0.3-0.6,0.3-1c0.1-0.4,0.1-1,0.1-1.7c0-0.7,0-1.2-0.1-1.7c-0.1-0.4-0.2-0.8-0.3-1c-0.2-0.2-0.3-0.4-0.6-0.5
			c-0.2-0.1-0.5-0.1-0.8-0.1c-0.3,0-0.6,0-0.8,0.1c-0.2,0.1-0.4,0.2-0.6,0.5c-0.1,0.2-0.3,0.6-0.3,1c-0.1,0.4-0.1,1-0.1,1.7
			c0,0.7,0,1.2,0.1,1.7s0.2,0.8,0.3,1c0.2,0.2,0.3,0.4,0.6,0.5c0.2,0.1,0.5,0.1,0.8,0.1C145.3,69,145.6,69,145.8,68.9z"/>
		<path class="st0" d="M154.8,68.8c0.4,0.1,0.9,0.2,1.4,0.2c0.4,0,0.7-0.1,0.9-0.2c0.2-0.1,0.4-0.4,0.4-0.7c0-0.3-0.1-0.5-0.2-0.7
			c-0.2-0.2-0.4-0.3-0.7-0.4l-1-0.4c-0.7-0.3-1.2-0.6-1.6-1.1c-0.4-0.5-0.6-1.1-0.6-1.8c0-0.5,0.1-0.9,0.3-1.3
			c0.2-0.4,0.4-0.7,0.7-0.9c0.3-0.2,0.6-0.4,1-0.6c0.4-0.1,0.8-0.2,1.3-0.2c0.6,0,1.1,0.1,1.6,0.2c0.5,0.1,0.9,0.3,1.3,0.4l-0.6,1.8
			c-0.1-0.1-0.3-0.1-0.4-0.2c-0.2-0.1-0.4-0.1-0.6-0.2c-0.2-0.1-0.4-0.1-0.6-0.1c-0.2,0-0.4-0.1-0.6-0.1c-0.3,0-0.6,0.1-0.8,0.2
			c-0.2,0.1-0.3,0.4-0.3,0.7c0,0.3,0.1,0.5,0.3,0.7c0.2,0.2,0.4,0.3,0.8,0.4l1.3,0.5c0.6,0.3,1.1,0.6,1.5,1s0.5,1,0.5,1.7
			c0,0.5-0.1,1-0.3,1.4c-0.2,0.4-0.4,0.7-0.7,1c-0.3,0.3-0.7,0.5-1.1,0.6c-0.4,0.1-0.9,0.2-1.5,0.2c-0.7,0-1.3-0.1-1.8-0.3
			c-0.5-0.2-1-0.3-1.2-0.5l0.6-1.7C154,68.5,154.4,68.7,154.8,68.8z"/>
		<path class="st0" d="M163.5,60.9v6c0,0.5,0,0.8,0.1,1.1c0.1,0.3,0.2,0.5,0.3,0.7c0.1,0.2,0.3,0.3,0.5,0.3c0.2,0.1,0.5,0.1,0.7,0.1
			c0.3,0,0.5,0,0.7-0.1c0.2-0.1,0.4-0.2,0.5-0.3c0.1-0.2,0.2-0.4,0.3-0.7c0.1-0.3,0.1-0.7,0.1-1.1v-5.9h2.2V67
			c0,0.8-0.1,1.4-0.3,1.9c-0.2,0.5-0.5,0.9-0.8,1.2c-0.3,0.3-0.8,0.5-1.2,0.6c-0.5,0.1-0.9,0.2-1.5,0.2c-0.5,0-1.1,0-1.5-0.1
			c-0.5-0.1-0.9-0.3-1.2-0.6c-0.3-0.3-0.6-0.7-0.8-1.2c-0.2-0.5-0.3-1.1-0.3-1.9v-6.2H163.5z"/>
		<path class="st0" d="M174.3,60.9c0.6,0,1.1,0.1,1.6,0.2c0.5,0.1,1,0.4,1.4,0.8c0.4,0.4,0.7,0.9,1,1.5s0.4,1.4,0.4,2.4
			c0,1-0.1,1.8-0.4,2.4s-0.6,1.1-1,1.5c-0.4,0.4-0.9,0.6-1.4,0.8c-0.5,0.1-1.1,0.2-1.6,0.2h-3.3v-9.8H174.3z M174.9,68.7
			c0.3-0.1,0.6-0.2,0.8-0.4c0.2-0.2,0.4-0.5,0.5-0.9c0.1-0.4,0.2-0.9,0.2-1.6c0-0.7-0.1-1.2-0.2-1.6c-0.1-0.4-0.3-0.7-0.5-0.9
			c-0.2-0.2-0.5-0.4-0.8-0.4c-0.3-0.1-0.6-0.1-1-0.1h-0.7v6.1h0.7C174.3,68.8,174.6,68.8,174.9,68.7z"/>
		<path class="st0" d="M182.4,70.6c-0.5-0.2-0.9-0.4-1.3-0.8c-0.4-0.4-0.7-0.9-0.9-1.6c-0.2-0.7-0.3-1.5-0.3-2.5
			c0-1,0.1-1.8,0.3-2.4c0.2-0.6,0.5-1.2,0.9-1.6c0.4-0.4,0.8-0.7,1.3-0.9c0.5-0.2,1-0.3,1.6-0.3c0.6,0,1.1,0.1,1.6,0.2
			c0.5,0.2,0.9,0.4,1.3,0.8c0.4,0.4,0.7,0.9,0.9,1.6c0.2,0.7,0.3,1.5,0.3,2.5c0,1-0.1,1.8-0.3,2.4c-0.2,0.6-0.5,1.2-0.9,1.6
			c-0.4,0.4-0.8,0.7-1.3,0.9c-0.5,0.2-1,0.3-1.6,0.3C183.5,70.8,182.9,70.8,182.4,70.6z M184.9,68.9c0.2-0.1,0.4-0.2,0.6-0.5
			c0.2-0.2,0.3-0.6,0.3-1c0.1-0.4,0.1-1,0.1-1.7c0-0.7,0-1.2-0.1-1.7c-0.1-0.4-0.2-0.8-0.3-1c-0.2-0.2-0.3-0.4-0.6-0.5
			c-0.2-0.1-0.5-0.1-0.8-0.1c-0.3,0-0.6,0-0.8,0.1c-0.2,0.1-0.4,0.2-0.6,0.5c-0.1,0.2-0.3,0.6-0.3,1c-0.1,0.4-0.1,1-0.1,1.7
			c0,0.7,0,1.2,0.1,1.7c0.1,0.4,0.2,0.8,0.3,1c0.2,0.2,0.3,0.4,0.6,0.5c0.2,0.1,0.5,0.1,0.8,0.1C184.4,69,184.7,69,184.9,68.9z"/>
		<path class="st0" d="M196.4,60.9v1.8h-4.2v2.1h2.8v1.8h-2.8v2.2h4.4v1.8h-6.7v-9.8H196.4z"/>
		<path class="st0" d="M199,68.8c0.4,0.1,0.9,0.2,1.4,0.2c0.4,0,0.7-0.1,0.9-0.2c0.2-0.1,0.4-0.4,0.4-0.7c0-0.3-0.1-0.5-0.2-0.7
			c-0.2-0.2-0.4-0.3-0.7-0.4l-1-0.4c-0.7-0.3-1.2-0.6-1.6-1.1c-0.4-0.5-0.6-1.1-0.6-1.8c0-0.5,0.1-0.9,0.3-1.3
			c0.2-0.4,0.4-0.7,0.7-0.9c0.3-0.2,0.6-0.4,1-0.6c0.4-0.1,0.8-0.2,1.3-0.2c0.6,0,1.1,0.1,1.6,0.2c0.5,0.1,0.9,0.3,1.3,0.4l-0.6,1.8
			c-0.1-0.1-0.3-0.1-0.4-0.2c-0.2-0.1-0.4-0.1-0.6-0.2c-0.2-0.1-0.4-0.1-0.6-0.1c-0.2,0-0.4-0.1-0.6-0.1c-0.3,0-0.6,0.1-0.8,0.2
			c-0.2,0.1-0.3,0.4-0.3,0.7c0,0.3,0.1,0.5,0.3,0.7c0.2,0.2,0.4,0.3,0.8,0.4l1.3,0.5c0.6,0.3,1.1,0.6,1.5,1c0.4,0.4,0.5,1,0.5,1.7
			c0,0.5-0.1,1-0.3,1.4c-0.2,0.4-0.4,0.7-0.7,1c-0.3,0.3-0.7,0.5-1.1,0.6c-0.4,0.1-0.9,0.2-1.5,0.2c-0.7,0-1.3-0.1-1.8-0.3
			c-0.5-0.2-1-0.3-1.2-0.5l0.6-1.7C198.3,68.5,198.6,68.7,199,68.8z"/>
		<path class="st0" d="M204.7,62.7v-1.9h7.3v1.9h-2.6v8h-2.2v-8H204.7z"/>
		<path class="st0" d="M219.6,60.9v1.8h-4.2v2.1h2.8v1.8h-2.8v2.2h4.4v1.8h-6.7v-9.8H219.6z"/>
	</g>
	<g>
		<path class="st0" d="M56,80.8c0.5,0,1,0.1,1.5,0.2c0.5,0.1,0.9,0.4,1.2,0.7c0.4,0.4,0.6,0.8,0.8,1.4c0.2,0.6,0.3,1.3,0.3,2.2
			c0,0.9-0.1,1.6-0.3,2.2c-0.2,0.6-0.5,1-0.8,1.4c-0.3,0.4-0.8,0.6-1.2,0.8c-0.5,0.1-1,0.2-1.5,0.2h-2.5v-9.1H56z M57,88.8
			c0.4-0.1,0.7-0.3,0.9-0.6c0.3-0.3,0.5-0.6,0.6-1.1c0.1-0.5,0.2-1,0.2-1.7c0-0.7-0.1-1.3-0.2-1.7c-0.1-0.5-0.3-0.8-0.6-1.1
			c-0.3-0.3-0.6-0.5-0.9-0.6c-0.4-0.1-0.7-0.2-1.2-0.2h-1.2v7.1h1.2C56.3,88.9,56.7,88.9,57,88.8z"/>
		<path class="st0" d="M64.4,80.8c0.4,0,0.8,0.1,1.2,0.2c0.4,0.1,0.7,0.3,0.9,0.5c0.3,0.2,0.5,0.5,0.6,0.9c0.1,0.4,0.2,0.8,0.2,1.3
			c0,0.7-0.1,1.2-0.4,1.6c-0.3,0.4-0.7,0.7-1.1,0.9l2.3,3.6v0.2h-1.2l-2.1-3.6c-0.1,0-0.1,0-0.2,0h-1.3v3.5H62v-9.1H64.4z M65.7,85
			c0.3-0.3,0.5-0.7,0.5-1.4c0-0.6-0.2-1.1-0.5-1.4c-0.3-0.3-0.8-0.4-1.5-0.4h-1.1v3.6h1.1C64.9,85.4,65.4,85.2,65.7,85z"/>
		<path class="st0" d="M69.6,88.7c0.1-0.1,0.3-0.2,0.5-0.2c0.2,0,0.4,0.1,0.5,0.2c0.1,0.1,0.2,0.3,0.2,0.6c0,0.3-0.1,0.5-0.2,0.6
			c-0.1,0.1-0.3,0.2-0.5,0.2c-0.2,0-0.4-0.1-0.5-0.2c-0.1-0.1-0.2-0.3-0.2-0.6C69.4,89,69.5,88.8,69.6,88.7z"/>
		<path class="st0" d="M78.1,80.8h1.4l2.8,8.9v0.2h-1.1l-0.8-2.5h-3.3l-0.8,2.5h-1.1v-0.1L78.1,80.8z M78.8,82l-1.4,4.4h2.8L78.8,82
			z"/>
		<path class="st0" d="M85.1,80.8v8.1H89v1h-5v-9.1H85.1z"/>
		<path class="st0" d="M93.2,80.8c0.8,0,1.5,0.2,1.9,0.6c0.4,0.4,0.6,1,0.6,1.8c0,0.5-0.1,0.9-0.4,1.2c-0.2,0.3-0.5,0.5-0.8,0.7
			c0.2,0,0.4,0.1,0.6,0.2c0.2,0.1,0.4,0.2,0.5,0.4c0.1,0.2,0.3,0.4,0.4,0.7c0.1,0.3,0.1,0.6,0.1,0.9c0,1.7-0.9,2.5-2.7,2.5h-2.8
			v-9.1H93.2z M94.2,84.4c0.3-0.2,0.4-0.6,0.4-1.1c0-0.5-0.1-0.9-0.4-1.2c-0.3-0.2-0.6-0.4-1.1-0.4h-1.4v3h1.4
			C93.6,84.8,93.9,84.6,94.2,84.4z M94,88.8c0.2-0.1,0.4-0.1,0.5-0.3c0.1-0.1,0.3-0.3,0.3-0.5c0.1-0.2,0.1-0.5,0.1-0.8
			c0-0.6-0.2-1-0.5-1.2c-0.3-0.2-0.7-0.4-1.2-0.4h-1.6v3.2h1.6C93.6,88.9,93.8,88.9,94,88.8z"/>
		<path class="st0" d="M100,80.8h1.4l2.8,8.9v0.2h-1.1l-0.8-2.5H99l-0.8,2.5h-1.1v-0.1L100,80.8z M100.6,82l-1.4,4.4h2.8L100.6,82z"
			/>
		<path class="st0" d="M107.1,80.8l4.3,7.3v-7.3h1v9.1h-1.1l-4.5-7.5v7.5h-1v-9.1H107.1z"/>
		<path class="st0" d="M116.3,80.8v9.1h-1.1v-9.1H116.3z"/>
		<path class="st0" d="M121.4,80.8c0.4,0,0.8,0.1,1.2,0.2c0.4,0.1,0.7,0.3,0.9,0.5c0.3,0.2,0.5,0.5,0.6,0.9s0.2,0.8,0.2,1.3
			c0,0.7-0.1,1.2-0.4,1.6c-0.3,0.4-0.7,0.7-1.1,0.9l2.3,3.6v0.2h-1.2l-2.1-3.6c-0.1,0-0.1,0-0.2,0h-1.3v3.5H119v-9.1H121.4z
			 M122.7,85c0.3-0.3,0.5-0.7,0.5-1.4c0-0.6-0.2-1.1-0.5-1.4c-0.3-0.3-0.8-0.4-1.5-0.4h-1.1v3.6h1.1C121.9,85.4,122.4,85.2,122.7,85
			z"/>
		<path class="st0" d="M135.2,80.8v1h-4.1v3.2h2.8v1h-2.8v4h-1.1v-9.1H135.2z"/>
		<path class="st0" d="M138.5,80.8h1.4l2.8,8.9v0.2h-1.1l-0.8-2.5h-3.3l-0.8,2.5h-1.1v-0.1L138.5,80.8z M139.1,82l-1.4,4.4h2.8
			L139.1,82z"/>
		<path class="st0" d="M145.5,80.8v8.1h3.9v1h-5v-9.1H145.5z"/>
		<path class="st0" d="M156.4,80.8v1h-4.3v3h3.1v1h-3.1v3.2h4.5v1H151v-9.1H156.4z"/>
		<path class="st0" d="M159.5,80.8v9.1h-1.1v-9.1H159.5z"/>
		<path class="st0" d="M164.6,80.8c0.4,0,0.8,0.1,1.2,0.2s0.7,0.3,0.9,0.5c0.3,0.2,0.5,0.5,0.6,0.9c0.1,0.4,0.2,0.8,0.2,1.3
			c0,0.7-0.1,1.2-0.4,1.6c-0.3,0.4-0.7,0.7-1.1,0.9l2.3,3.6v0.2H167l-2.1-3.6c-0.1,0-0.1,0-0.2,0h-1.3v3.5h-1.1v-9.1H164.6z
			 M165.9,85c0.3-0.3,0.5-0.7,0.5-1.4c0-0.6-0.2-1.1-0.5-1.4c-0.3-0.3-0.8-0.4-1.5-0.4h-1.1v3.6h1.1C165.1,85.4,165.6,85.2,165.9,85
			z"/>
		<path class="st0" d="M171.6,89.8c-0.4-0.2-0.8-0.4-1.1-0.8c-0.3-0.4-0.6-0.8-0.7-1.4c-0.2-0.6-0.3-1.3-0.3-2.2
			c0-0.9,0.1-1.6,0.3-2.2c0.2-0.6,0.4-1.1,0.8-1.4c0.3-0.4,0.7-0.6,1.1-0.8c0.4-0.2,0.9-0.2,1.4-0.2c0.5,0,1,0.1,1.4,0.2
			c0.4,0.2,0.8,0.4,1.1,0.8c0.3,0.4,0.6,0.8,0.7,1.4c0.2,0.6,0.3,1.3,0.3,2.2c0,0.9-0.1,1.6-0.3,2.2c-0.2,0.6-0.4,1.1-0.8,1.4
			c-0.3,0.4-0.7,0.6-1.1,0.8c-0.4,0.2-0.9,0.2-1.4,0.2C172.5,90,172,89.9,171.6,89.8z M174,88.8c0.3-0.1,0.5-0.3,0.7-0.6
			c0.2-0.3,0.4-0.7,0.4-1.1c0.1-0.5,0.1-1,0.1-1.7c0-0.7-0.1-1.3-0.2-1.7c-0.1-0.5-0.3-0.8-0.5-1.1c-0.2-0.3-0.5-0.5-0.8-0.6
			c-0.3-0.1-0.6-0.2-1-0.2c-0.4,0-0.7,0.1-1,0.2c-0.3,0.1-0.5,0.3-0.8,0.6c-0.2,0.3-0.4,0.7-0.4,1.1c-0.1,0.5-0.1,1.1-0.1,1.7
			c0,0.7,0.1,1.3,0.2,1.7c0.1,0.5,0.3,0.8,0.5,1.1c0.2,0.3,0.5,0.5,0.7,0.6c0.3,0.1,0.6,0.2,1,0.2C173.3,89,173.7,89,174,88.8z"/>
		<path class="st0" d="M179.1,88.8c0.4,0.1,0.8,0.2,1.3,0.2c0.2,0,0.5,0,0.7-0.1c0.2-0.1,0.4-0.1,0.6-0.3c0.2-0.1,0.3-0.3,0.4-0.5
			c0.1-0.2,0.1-0.4,0.1-0.7c0-0.4-0.1-0.8-0.3-1c-0.2-0.2-0.5-0.4-1-0.6l-0.8-0.3c-0.6-0.2-1.1-0.6-1.5-0.9
			c-0.4-0.4-0.6-0.9-0.6-1.6c0-0.4,0.1-0.8,0.2-1.1c0.1-0.3,0.3-0.6,0.6-0.8c0.2-0.2,0.5-0.4,0.9-0.5c0.3-0.1,0.7-0.2,1.1-0.2
			c0.5,0,0.9,0.1,1.3,0.2c0.4,0.1,0.7,0.2,1,0.4l-0.4,0.9c-0.2-0.1-0.5-0.3-0.9-0.4c-0.4-0.1-0.7-0.2-1.1-0.2
			c-0.5,0-0.8,0.1-1.1,0.3c-0.3,0.2-0.4,0.6-0.4,1c0,0.4,0.1,0.7,0.3,1s0.5,0.5,1,0.6l1.2,0.4c0.6,0.2,1.1,0.5,1.4,0.9
			c0.3,0.4,0.5,0.8,0.5,1.4c0,0.8-0.3,1.5-0.8,1.9c-0.5,0.5-1.2,0.7-2.2,0.7c-0.5,0-1-0.1-1.5-0.2s-0.8-0.3-1.1-0.5l0.4-0.9
			C178.5,88.5,178.8,88.7,179.1,88.8z"/>
		<path class="st0" d="M190.2,80.8l2.6,6.3l2.6-6.3h1.6v9.1h-1V82l-2.8,6.5h-0.8l-2.8-6.5v7.8h-1v-9.1H190.2z"/>
		<path class="st0" d="M201.5,80.8h1.4l2.8,8.9v0.2h-1.1l-0.8-2.5h-3.3l-0.8,2.5h-1.1v-0.1L201.5,80.8z M202.2,82l-1.4,4.4h2.8
			L202.2,82z"/>
		<path class="st0" d="M209.1,89.8c-0.5-0.2-0.8-0.4-1.2-0.8c-0.3-0.4-0.6-0.8-0.8-1.4c-0.2-0.6-0.3-1.3-0.3-2.2
			c0-0.9,0.1-1.6,0.3-2.2c0.2-0.6,0.5-1.1,0.8-1.4c0.3-0.4,0.7-0.6,1.2-0.8c0.5-0.2,0.9-0.2,1.5-0.2c0.5,0,0.9,0.1,1.3,0.2
			c0.4,0.1,0.7,0.3,1,0.5l-0.4,0.9c-0.3-0.2-0.6-0.3-0.9-0.4s-0.6-0.2-1-0.2c-0.4,0-0.8,0.1-1.1,0.2c-0.3,0.1-0.6,0.3-0.8,0.6
			c-0.2,0.3-0.4,0.7-0.5,1.1c-0.1,0.5-0.2,1.1-0.2,1.8c0,0.7,0.1,1.2,0.2,1.7c0.1,0.5,0.3,0.9,0.5,1.1c0.2,0.3,0.5,0.5,0.8,0.6
			c0.3,0.1,0.7,0.2,1.1,0.2c0.4,0,0.8-0.1,1.1-0.2c0.3-0.1,0.6-0.3,1-0.5l0.4,0.8c-0.3,0.3-0.7,0.5-1.1,0.6
			c-0.4,0.1-0.9,0.2-1.4,0.2C210,90,209.5,89.9,209.1,89.8z"/>
		<path class="st0" d="M215.9,80.8v3.9h4v-3.9h1.1v9.1h-1.1v-4.2h-4v4.2h-1.1v-9.1H215.9z"/>
		<path class="st0" d="M225.6,80.8h1.4l2.8,8.9v0.2h-1.1l-0.8-2.5h-3.3l-0.8,2.5h-1.1v-0.1L225.6,80.8z M226.2,82l-1.4,4.4h2.8
			L226.2,82z"/>
		<path class="st0" d="M234,80.8c0.5,0,1,0.1,1.5,0.2c0.5,0.1,0.9,0.4,1.2,0.7c0.4,0.4,0.6,0.8,0.8,1.4c0.2,0.6,0.3,1.3,0.3,2.2
			c0,0.9-0.1,1.6-0.3,2.2c-0.2,0.6-0.5,1-0.8,1.4c-0.4,0.4-0.8,0.6-1.2,0.8c-0.5,0.1-1,0.2-1.5,0.2h-2.5v-9.1H234z M235,88.8
			c0.4-0.1,0.7-0.3,0.9-0.6c0.3-0.3,0.5-0.6,0.6-1.1c0.1-0.5,0.2-1,0.2-1.7c0-0.7-0.1-1.3-0.2-1.7c-0.1-0.5-0.3-0.8-0.6-1.1
			c-0.3-0.3-0.6-0.5-0.9-0.6c-0.4-0.1-0.7-0.2-1.2-0.2h-1.2v7.1h1.2C234.2,88.9,234.6,88.9,235,88.8z"/>
		<path class="st0" d="M241.5,89.8c-0.4-0.2-0.8-0.4-1.1-0.8c-0.3-0.4-0.6-0.8-0.7-1.4c-0.2-0.6-0.3-1.3-0.3-2.2
			c0-0.9,0.1-1.6,0.3-2.2s0.4-1.1,0.8-1.4c0.3-0.4,0.7-0.6,1.1-0.8c0.4-0.2,0.9-0.2,1.4-0.2c0.5,0,1,0.1,1.4,0.2
			c0.4,0.2,0.8,0.4,1.1,0.8c0.3,0.4,0.6,0.8,0.7,1.4c0.2,0.6,0.3,1.3,0.3,2.2c0,0.9-0.1,1.6-0.3,2.2c-0.2,0.6-0.4,1.1-0.8,1.4
			c-0.3,0.4-0.7,0.6-1.1,0.8c-0.4,0.2-0.9,0.2-1.4,0.2C242.4,90,242,89.9,241.5,89.8z M244,88.8c0.3-0.1,0.5-0.3,0.7-0.6
			c0.2-0.3,0.4-0.7,0.4-1.1s0.1-1,0.1-1.7c0-0.7-0.1-1.3-0.2-1.7c-0.1-0.5-0.3-0.8-0.5-1.1c-0.2-0.3-0.5-0.5-0.8-0.6
			c-0.3-0.1-0.6-0.2-1-0.2c-0.4,0-0.7,0.1-1,0.2c-0.3,0.1-0.5,0.3-0.8,0.6c-0.2,0.3-0.4,0.7-0.4,1.1c-0.1,0.5-0.1,1.1-0.1,1.7
			c0,0.7,0.1,1.3,0.2,1.7c0.1,0.5,0.3,0.8,0.5,1.1c0.2,0.3,0.5,0.5,0.7,0.6c0.3,0.1,0.6,0.2,1,0.2C243.3,89,243.7,89,244,88.8z"/>
	</g>
</g>
</svg>
